<svg version="1.0" xmlns="http://www.w3.org/2000/svg" width="800.000000" height="800.000000" viewBox="0 0 800.000000 800.000000" preserveAspectRatio="xMidYMid meet">
  <metadata>
    <rdf:RDF xmlns:rdf="http://www.w3.org/1999/02/22-rdf-syntax-ns#" xmlns:rdfs="http://www.w3.org/2000/01/rdf-schema#" xmlns:dc="http://purl.org/dc/elements/1.1/">
      <rdf:Description dc:format="image/svg+xml" dc:Label="1" dc:ContentProducer="001191330110MACRLGPT8B00000" dc:ProduceID="370374122" dc:ReservedCode1="7F68LraDO3cT2mkaSVn5ZTbkha9GjM+aVmC2QqT+Zmo=" dc:ContentPropagator="001191330110MACRLGPT8B00000" dc:PropagateID="370374122" dc:ReservedCode2="7F68LraDO3cT2mkaSVn5ZTbkha9GjM+aVmC2QqT+Zmo="/>
    </rdf:RDF>
  </metadata>
  <g transform="translate(164.398896,651.470654) scale(0.060763,-0.060763)" fill="#000000" stroke="none">
    <path d="M6385 7473 c-11 -1 -141 -9 -290 -17 -461 -26 -589 -62 -789 -224 -86 -70 -356 -337 -491 -487 -54 -60 -228 -241 -387 -400 -330 -334 -344 -354 -336 -474 3 -41 14 -83 28 -111 15 -29 135 -158 344 -370 177 -179 406 -416 510 -527 234 -252 280 -283 417 -283 103 0 157 37 447 315 195 187 252 241 362 340 73 66 250 228 385 354 181 168 279 283 324 382 126 281 133 1048 11 1295 -66 135 -193 195 -435 207 -44 2 -89 2 -100 0z m208 -347 c48 -19 55 -40 68 -194 19 -212 1 -539 -37 -707 -43 -183 -70 -213 -829 -921 -327 -305 -426 -394 -436 -394 -4 0 -49 44 -101 97 -196 205 -792 824 -824 856 -5 4 84 101 197 215 113 114 314 324 446 467 296 320 460 480 519 507 60 26 231 54 454 72 102 9 201 18 220 20 77 9 287 -3 323 -18z"/>
    <path d="M1490 7454 c-58 -8 -220 -20 -360 -28 -278 -15 -331 -26 -395 -78 -44 -37 -70 -87 -92 -175 -20 -86 -23 -456 -5 -648 19 -189 42 -373 54 -425 17 -72 82 -201 146 -286 84 -114 319 -360 623 -654 483 -468 647 -620 970 -901 412 -359 820 -757 1449 -1414 179 -187 414 -431 523 -543 109 -112 209 -221 224 -243 l26 -39 -62 -82 c-190 -256 -205 -286 -204 -418 0 -142 57 -268 169 -375 138 -133 322 -164 488 -81 93 45 162 108 321 287 116 132 263 287 313 332 19 17 24 13 243 -206 297 -297 547 -513 694 -601 80 -49 203 -80 284 -72 194 18 349 136 414 315 26 73 28 187 3 259 -44 129 -103 201 -382 463 -269 254 -484 485 -484 521 0 6 116 129 258 272 213 214 267 275 305 340 114 196 94 354 -66 510 -85 83 -222 168 -321 198 -133 40 -235 4 -383 -136 l-84 -79 -242 240 c-133 132 -332 318 -442 414 -342 298 -686 631 -1383 1340 -370 376 -684 693 -697 704 -197 165 -905 833 -1057 996 -172 185 -280 254 -448 289 -111 23 -245 24 -400 4z m413 -351 c32 -12 98 -72 272 -247 127 -128 331 -322 455 -432 124 -109 318 -281 430 -380 207 -184 446 -421 820 -814 207 -218 863 -877 1045 -1051 55 -52 208 -189 340 -304 236 -205 330 -293 610 -566 161 -157 196 -179 288 -179 104 0 204 66 318 209 l35 44 63 -33 c63 -34 141 -110 141 -138 0 -47 -57 -117 -277 -344 -218 -225 -291 -312 -320 -379 -33 -76 -24 -173 23 -274 48 -102 195 -274 546 -638 126 -131 233 -249 239 -264 24 -64 -32 -133 -109 -133 -52 0 -99 24 -249 127 -280 193 -542 426 -687 611 -76 96 -120 125 -201 130 -107 7 -123 -5 -455 -340 -162 -164 -308 -302 -323 -308 -86 -31 -157 16 -157 104 0 25 13 47 55 97 183 213 218 269 231 366 8 61 -15 156 -53 220 -31 53 -1667 1686 -1988 1985 -115 108 -293 269 -395 358 -349 308 -674 620 -1163 1120 -269 275 -363 385 -403 477 -32 71 -68 269 -84 458 -13 149 -10 458 3 472 5 4 94 11 199 15 157 6 355 24 553 52 50 7 154 -4 198 -21z"/>
    <path d="M2108 4027 c-102 -39 -164 -92 -340 -297 -132 -153 -263 -284 -303 -302 -41 -19 -74 0 -188 110 -62 60 -132 122 -157 139 -182 123 -415 60 -554 -151 -53 -80 -69 -143 -64 -246 6 -125 50 -212 199 -391 255 -304 383 -478 403 -545 9 -28 -43 -97 -262 -347 -306 -350 -368 -433 -402 -545 -50 -161 2 -346 134 -478 74 -73 144 -104 240 -104 162 0 217 39 601 425 170 171 338 335 373 364 68 55 103 63 153 37 14 -7 100 -89 190 -181 381 -390 506 -468 704 -437 227 35 386 221 372 434 -7 108 -38 168 -161 309 -30 34 -67 84 -81 111 -24 44 -25 51 -12 71 8 12 125 132 259 267 289 289 303 310 303 450 0 121 -22 156 -210 339 -82 80 -251 249 -375 375 -325 330 -538 518 -658 580 -45 23 -119 29 -164 13z m131 -339 c59 -29 302 -266 494 -483 83 -93 193 -214 244 -268 92 -97 183 -211 183 -231 0 -6 -103 -112 -229 -236 -316 -311 -347 -358 -340 -513 5 -91 42 -170 131 -278 78 -95 118 -157 118 -185 0 -33 -37 -73 -75 -80 -25 -4 -47 0 -79 15 -66 32 -259 202 -457 401 -202 204 -245 232 -352 233 -140 0 -227 -67 -732 -564 -281 -276 -309 -296 -346 -250 -30 36 -34 95 -10 144 26 52 136 189 341 422 194 222 247 292 285 375 26 57 30 76 30 155 0 78 -4 98 -27 145 -61 123 -214 325 -418 548 -129 141 -180 219 -180 272 0 63 63 111 125 96 14 -3 89 -67 167 -141 169 -161 216 -188 323 -189 56 -1 82 5 128 26 143 67 330 259 480 493 79 122 108 136 196 93z"/>
  </g>
</svg>