<svg version="1.0" xmlns="http://www.w3.org/2000/svg" width="800.000000" height="800.000000" viewBox="0 0 800.000000 800.000000" preserveAspectRatio="xMidYMid meet">
  <metadata>
    <rdf:RDF xmlns:rdf="http://www.w3.org/1999/02/22-rdf-syntax-ns#" xmlns:rdfs="http://www.w3.org/2000/01/rdf-schema#" xmlns:dc="http://purl.org/dc/elements/1.1/">
      <rdf:Description dc:format="image/svg+xml" dc:Label="1" dc:ContentProducer="001191330110MACRLGPT8B00000" dc:ProduceID="370374124" dc:ReservedCode1="8JmjwvUtcsVza0SFB9xsx/ErAKGswstawNZAUOpw33o=" dc:ContentPropagator="001191330110MACRLGPT8B00000" dc:PropagateID="370374124" dc:ReservedCode2="8JmjwvUtcsVza0SFB9xsx/ErAKGswstawNZAUOpw33o="/>
    </rdf:RDF>
  </metadata>
  <g transform="translate(163.733714,655.859674) scale(0.061754,-0.061754)" fill="#000000" stroke="none">
    <path d="M2115 7239 c-324 -50 -642 -222 -939 -508 -152 -148 -246 -274 -378 -511 -170 -305 -296 -686 -359 -1085 -23 -141 -16 -441 14 -680 41 -325 46 -367 62 -565 8 -102 21 -223 29 -270 8 -47 17 -149 20 -228 22 -523 96 -737 317 -930 140 -121 214 -160 639 -335 204 -84 405 -179 720 -342 157 -80 344 -175 415 -209 308 -150 1182 -476 1394 -521 92 -19 286 -19 366 0 216 51 492 172 1080 475 279 144 452 230 460 230 29 0 605 309 756 406 89 57 195 157 255 240 67 94 139 255 173 384 34 133 44 230 67 618 14 232 15 305 5 410 -15 171 -14 313 5 586 13 184 14 251 5 343 -16 158 -56 371 -91 473 -47 140 -157 391 -215 488 -161 273 -376 455 -650 549 -94 32 -658 178 -1040 269 -170 40 -382 93 -470 118 -287 80 -577 166 -715 211 -190 62 -566 165 -835 229 -82 20 -217 54 -300 77 -248 66 -338 80 -545 84 -102 2 -212 0 -245 -6z m520 -404 c137 -21 138 -22 80 -54 -254 -139 -487 -332 -629 -521 -155 -206 -224 -344 -333 -665 -130 -386 -203 -718 -203 -927 0 -37 -4 -68 -9 -68 -5 0 -47 14 -93 31 -82 30 -495 150 -573 167 l-40 8 2 110 c7 422 211 1067 428 1355 152 202 462 438 690 525 138 52 223 64 410 59 94 -2 215 -11 270 -20z m763 -200 c59 -14 186 -50 282 -80 96 -29 201 -61 233 -70 31 -9 57 -20 57 -24 0 -4 -51 -29 -112 -56 -62 -27 -138 -61 -168 -75 l-55 -27 -155 49 c-85 26 -186 55 -225 64 -63 13 -74 13 -112 -1 -30 -12 -46 -26 -58 -51 -44 -93 30 -156 257 -216 l77 -21 -82 -89 c-136 -148 -258 -334 -373 -570 -21 -43 -42 -78 -47 -78 -5 0 -24 12 -42 26 -72 55 -166 60 -200 12 -43 -63 10 -151 115 -189 l58 -21 -25 -67 c-14 -36 -43 -120 -65 -185 -21 -66 -40 -122 -43 -124 -2 -3 -10 0 -17 6 -7 6 -65 32 -128 57 -187 77 -263 71 -291 -25 -10 -32 -9 -44 7 -76 28 -57 86 -95 238 -154 75 -30 136 -59 136 -64 0 -6 -9 -47 -20 -91 -11 -44 -27 -137 -37 -206 l-17 -126 -109 39 c-169 60 -289 109 -451 184 l-149 69 7 90 c11 138 62 430 111 630 61 245 79 300 96 298 8 -1 59 -18 113 -38 192 -69 325 -77 383 -23 21 19 24 30 20 62 -11 77 -96 133 -322 211 -60 21 -112 40 -114 42 -15 11 156 289 184 299 8 3 113 -39 234 -95 314 -145 377 -157 449 -85 30 30 34 39 29 69 -14 83 -80 128 -352 236 -102 41 -185 76 -185 79 0 3 15 16 34 30 316 239 411 303 530 361 98 48 149 50 304 14z m1175 -356 c168 -56 386 -111 612 -154 104 -20 191 -38 193 -39 1 -2 -38 -29 -88 -60 -191 -121 -442 -343 -581 -512 -139 -170 -266 -394 -385 -679 -168 -404 -233 -689 -234 -1022 0 -73 -3 -133 -8 -133 -16 0 -332 70 -407 90 -108 29 -309 94 -425 137 -113 42 -302 122 -312 131 -14 13 42 348 97 586 81 352 173 578 347 859 160 257 303 425 450 530 37 26 189 105 340 177 150 70 275 129 276 129 2 1 59 -17 125 -40z m1532 -434 c34 -8 87 -25 116 -38 207 -91 438 -418 524 -738 37 -141 68 -300 58 -310 -21 -21 -255 -155 -380 -218 -135 -68 -714 -328 -843 -379 -36 -14 -212 -92 -391 -173 -191 -86 -410 -177 -530 -220 -112 -39 -210 -74 -217 -77 -14 -5 -13 14 9 213 19 170 111 502 196 710 84 207 223 458 332 600 193 254 563 546 799 632 60 21 78 23 166 18 55 -3 127 -12 161 -20z m-5015 -1471 c107 -29 254 -73 325 -97 l130 -44 0 -49 c-1 -27 -7 -112 -14 -189 -13 -143 -10 -359 9 -580 5 -60 17 -207 25 -325 9 -118 23 -284 31 -369 17 -185 17 -201 3 -201 -6 0 -90 42 -186 93 -185 97 -265 158 -307 230 -34 58 -94 269 -161 563 -53 231 -58 264 -70 464 -8 118 -21 280 -30 360 -8 80 -15 160 -15 178 0 40 -19 43 260 -34z m5737 -426 c-6 -466 -50 -909 -106 -1093 -65 -211 -201 -346 -531 -532 -146 -82 -998 -505 -1180 -586 -156 -69 -568 -222 -576 -215 -3 4 -14 96 -24 205 -10 109 -28 252 -39 318 -50 292 -65 665 -40 1015 11 162 19 200 43 200 27 0 237 72 395 135 89 36 300 127 469 204 169 77 354 158 412 181 58 23 157 63 220 90 63 27 207 87 320 133 266 110 512 217 575 250 28 14 54 26 59 27 4 0 6 -150 3 -332z m-4864 90 c78 -39 252 -115 387 -168 l245 -97 7 -174 c3 -96 11 -214 18 -263 6 -49 9 -90 7 -92 -2 -2 -25 12 -53 30 -112 76 -329 199 -371 212 -25 8 -56 11 -69 8 -34 -9 -64 -51 -64 -90 0 -46 37 -85 177 -187 65 -46 147 -111 183 -144 97 -88 145 -122 178 -129 35 -7 38 -19 48 -185 l7 -104 -24 21 c-36 32 -83 54 -133 60 -41 6 -48 4 -75 -24 -21 -21 -31 -40 -31 -62 0 -65 40 -110 184 -205 81 -53 85 -57 90 -98 8 -65 22 -351 18 -357 -5 -6 -406 198 -590 300 l-137 76 -17 189 c-10 104 -16 190 -14 192 2 2 45 -11 97 -29 78 -27 109 -32 182 -33 82 0 89 2 108 25 40 52 37 99 -10 153 -36 41 -89 65 -256 117 -71 22 -136 44 -144 49 -14 9 -28 111 -47 342 l-7 86 32 -5 c97 -14 151 87 102 193 -10 22 -46 67 -80 100 -52 51 -61 64 -61 95 0 20 -7 79 -15 131 -22 134 -23 139 -18 139 2 0 67 -32 146 -72z m1112 -443 c172 -70 588 -209 790 -265 83 -23 156 -43 163 -46 17 -5 15 -55 -9 -304 -34 -336 -28 -800 15 -1338 6 -79 10 -145 9 -146 -2 -2 -56 16 -121 40 -64 23 -223 75 -352 114 -129 39 -296 95 -370 124 l-135 52 -2 70 c-5 147 -25 479 -43 694 -53 628 -62 724 -80 835 -32 204 -35 239 -19 232 8 -3 77 -31 154 -62z"/>
    <path d="M2015 5098 c-15 -14 -28 -38 -31 -59 -11 -66 72 -129 150 -115 94 18 96 135 3 179 -48 23 -91 21 -122 -5z"/>
  </g>
</svg>