<svg version="1.0" xmlns="http://www.w3.org/2000/svg" width="800.000000" height="800.000000" viewBox="0 0 800.000000 800.000000" preserveAspectRatio="xMidYMid meet">
  <metadata>
    <rdf:RDF xmlns:rdf="http://www.w3.org/1999/02/22-rdf-syntax-ns#" xmlns:rdfs="http://www.w3.org/2000/01/rdf-schema#" xmlns:dc="http://purl.org/dc/elements/1.1/">
      <rdf:Description dc:format="image/svg+xml" dc:Label="1" dc:ContentProducer="001191330110MACRLGPT8B00000" dc:ProduceID="370374123" dc:ReservedCode1="vZHhg8pRXiHdNf4ds/lo9zYDZM5a/TvrpkpJ23V5YDM=" dc:ContentPropagator="001191330110MACRLGPT8B00000" dc:PropagateID="370374123" dc:ReservedCode2="vZHhg8pRXiHdNf4ds/lo9zYDZM5a/TvrpkpJ23V5YDM="/>
    </rdf:RDF>
  </metadata>
  <g transform="translate(166.861570,650.211498) scale(0.060749,-0.060749)" fill="#000000" stroke="none">
    <path d="M5435 7523 c-163 -22 -302 -112 -363 -236 -100 -203 -44 -391 145 -485 117 -59 220 -72 608 -82 197 -5 335 -12 358 -19 21 -7 56 -28 77 -47 71 -64 86 -153 94 -547 6 -283 15 -343 66 -451 68 -143 181 -226 321 -234 258 -15 424 177 479 554 32 225 -10 699 -82 909 -62 181 -178 340 -318 435 -133 90 -256 130 -495 159 -282 35 -774 59 -890 44z m490 -343 c661 -53 807 -151 894 -600 62 -318 59 -540 -9 -698 -66 -154 -122 -83 -140 181 -5 78 -14 216 -19 307 -8 126 -16 186 -36 255 -54 187 -134 309 -238 362 -83 42 -205 62 -443 73 -215 9 -475 40 -523 61 -21 9 -22 12 -10 24 42 42 259 56 524 35z"/>
    <path d="M1215 7500 c-251 -24 -375 -77 -520 -226 -88 -89 -131 -154 -177 -266 -139 -339 -180 -914 -87 -1199 98 -299 285 -435 499 -364 42 14 70 33 120 84 94 95 130 177 170 383 5 26 14 134 20 240 13 234 23 305 56 375 29 60 73 96 149 118 41 13 221 30 525 51 217 15 378 54 463 113 129 90 174 223 127 372 -53 170 -156 262 -340 303 -75 16 -867 29 -1005 16z m555 -330 c176 -12 316 -29 350 -42 24 -10 25 -10 4 -18 -22 -8 -161 -22 -404 -40 -282 -21 -420 -51 -538 -116 -116 -65 -204 -178 -238 -309 -15 -54 -28 -194 -44 -457 -6 -91 -15 -190 -20 -220 -17 -88 -42 -158 -57 -158 -38 0 -81 191 -90 400 -6 153 17 405 48 530 56 220 189 360 385 406 141 32 354 41 604 24z"/>
    <path d="M2160 4644 c-79 -10 -455 -44 -590 -54 -128 -9 -340 -28 -680 -60 -234 -22 -377 -96 -442 -228 -33 -68 -32 -205 2 -276 79 -163 290 -264 645 -308 126 -15 867 -14 1080 1 337 25 456 31 798 40 362 10 844 4 1525 -20 214 -7 473 -9 690 -5 191 4 619 11 952 15 475 7 625 12 700 24 163 28 279 77 362 155 74 69 92 110 93 212 0 75 -3 91 -29 137 -35 63 -74 101 -150 147 -144 87 -235 102 -736 121 -212 9 -441 20 -509 25 -208 17 -745 30 -1616 41 -456 6 -877 14 -935 19 -116 9 -1104 21 -1160 14z m1390 -358 c173 -9 486 -16 695 -16 588 -1 1258 -17 1615 -40 179 -11 402 -25 495 -30 218 -14 419 -36 441 -48 21 -12 -40 -26 -196 -47 -163 -22 -1461 -38 -2030 -26 -250 6 -705 16 -1010 22 -563 13 -686 11 -1425 -22 -132 -6 -406 -9 -610 -6 -348 5 -377 7 -485 30 -63 14 -133 32 -155 39 -37 14 -38 15 -14 21 44 11 308 46 469 61 307 30 798 72 925 80 145 8 982 -4 1285 -18z"/>
    <path d="M753 2976 c-204 -64 -306 -309 -354 -850 -14 -163 -6 -490 15 -606 32 -178 90 -317 180 -437 132 -175 341 -275 637 -302 248 -24 785 -8 979 29 131 25 223 67 302 139 175 160 150 447 -53 596 -147 108 -198 117 -674 113 -517 -4 -485 -24 -496 307 -19 558 -74 802 -213 933 -87 83 -211 112 -323 78z m131 -428 c31 -110 46 -286 46 -552 0 -287 8 -362 51 -452 42 -90 98 -148 182 -189 142 -69 149 -70 582 -70 345 0 394 -2 428 -17 120 -54 -51 -106 -431 -130 -304 -19 -606 10 -751 73 -202 87 -278 429 -220 999 16 160 69 390 90 390 5 0 15 -24 23 -52z"/>
    <path d="M6661 2922 c-58 -22 -143 -100 -180 -165 -67 -118 -123 -334 -156 -602 -22 -169 -62 -359 -86 -407 -25 -50 -84 -87 -172 -111 -59 -15 -127 -20 -367 -27 -265 -7 -302 -10 -365 -30 -91 -29 -146 -62 -206 -123 -120 -121 -150 -316 -74 -468 66 -130 249 -227 500 -264 119 -18 657 -21 800 -5 301 34 526 178 668 426 101 177 155 451 177 889 18 366 -27 591 -151 752 -101 131 -257 185 -388 135z m159 -404 c40 -90 45 -136 32 -362 -20 -348 -84 -679 -160 -821 -58 -110 -199 -217 -328 -250 -74 -18 -280 -35 -438 -35 -250 0 -577 90 -553 153 3 9 18 24 34 34 24 16 61 19 338 24 227 5 337 11 410 24 348 61 459 215 515 715 21 188 42 317 65 410 41 166 52 180 85 108z"/>
  </g>
</svg>