<svg version="1.0" xmlns="http://www.w3.org/2000/svg" width="800.000000" height="800.000000" viewBox="0 0 800.000000 800.000000" preserveAspectRatio="xMidYMid meet">
  <metadata>
    <rdf:RDF xmlns:rdf="http://www.w3.org/1999/02/22-rdf-syntax-ns#" xmlns:rdfs="http://www.w3.org/2000/01/rdf-schema#" xmlns:dc="http://purl.org/dc/elements/1.1/">
      <rdf:Description dc:format="image/svg+xml" dc:Label="1" dc:ContentProducer="001191330110MACRLGPT8B00000" dc:ProduceID="370374125" dc:ReservedCode1="aiVQ7JukR/TI7IDg//j3DQWvhl+3wfSrYcEIhcY8w70=" dc:ContentPropagator="001191330110MACRLGPT8B00000" dc:PropagateID="370374125" dc:ReservedCode2="aiVQ7JukR/TI7IDg//j3DQWvhl+3wfSrYcEIhcY8w70="/>
    </rdf:RDF>
  </metadata>
  <g transform="translate(157.314145,656.133085) scale(0.062202,-0.062202)" fill="#000000" stroke="none">
    <path d="M2700 7440 c-215 -16 -362 -50 -594 -136 -335 -124 -566 -271 -835 -529 -300 -289 -455 -547 -624 -1045 -102 -297 -122 -460 -122 -960 1 -338 3 -389 24 -520 69 -447 204 -757 453 -1048 243 -283 713 -598 1068 -716 439 -146 934 -173 1460 -81 212 38 389 95 615 198 l109 50 51 -59 c27 -32 93 -104 145 -159 52 -55 177 -190 277 -300 197 -218 278 -299 483 -481 241 -215 311 -272 734 -603 199 -156 455 -261 635 -261 196 0 367 74 499 215 201 215 255 507 140 758 -71 154 -154 242 -468 497 -204 165 -260 218 -390 360 -146 161 -355 367 -551 544 -86 78 -210 191 -275 251 -65 61 -144 131 -174 157 l-54 46 71 139 c130 252 191 456 237 793 30 220 30 288 -3 515 -17 116 -33 257 -36 315 -9 140 -20 206 -56 325 -67 218 -258 563 -438 790 -274 346 -720 663 -1113 794 -186 61 -409 110 -628 137 -152 18 -484 26 -640 14z m500 -385 c154 -16 389 -56 505 -85 251 -64 568 -229 790 -410 85 -70 233 -222 302 -310 191 -245 341 -548 373 -752 89 -581 92 -770 14 -1115 -68 -306 -168 -508 -399 -808 -236 -307 -434 -460 -815 -635 -238 -110 -434 -164 -716 -200 -345 -44 -681 -14 -1038 92 -137 40 -332 138 -501 250 -174 115 -264 189 -380 309 -131 136 -217 256 -290 404 -85 173 -133 342 -181 645 -43 268 -3 810 82 1104 71 248 211 535 349 716 121 158 350 369 540 497 217 145 580 282 815 306 97 10 421 5 550 -8z m2253 -4047 l29 -23 -39 -41 c-113 -120 -363 -421 -418 -504 -16 -25 -31 -47 -32 -49 -2 -3 -52 42 -111 100 -59 57 -160 151 -224 209 -65 57 -118 108 -118 112 0 4 24 23 53 41 147 96 315 254 463 436 l49 61 160 -159 c88 -88 173 -170 188 -183z m347 -323 c12 -14 6 -24 -41 -73 -30 -31 -82 -91 -115 -132 -259 -323 -318 -395 -324 -398 -8 -3 -100 83 -100 93 0 3 17 22 38 43 60 60 250 298 347 434 l89 126 47 -38 c25 -22 52 -47 59 -55z m346 -357 c77 -84 207 -216 289 -293 306 -289 343 -328 376 -400 76 -168 33 -321 -115 -405 -103 -59 -248 -26 -461 106 -175 109 -675 500 -675 528 0 6 30 41 66 76 125 124 242 294 328 478 16 34 35 62 41 62 6 0 74 -69 151 -152z"/>
    <path d="M2645 6644 c-42 -21 -67 -59 -73 -110 -9 -85 38 -144 115 -144 37 0 51 6 78 33 44 44 54 100 27 161 -13 28 -31 50 -51 60 -37 20 -58 20 -96 0z"/>
    <path d="M2115 6555 c-76 -41 -159 -111 -290 -246 -200 -206 -343 -416 -457 -670 -71 -159 -128 -332 -135 -410 -5 -58 -3 -72 18 -108 62 -111 185 -108 257 7 36 55 49 85 98 212 79 206 208 433 342 602 32 40 127 138 211 217 83 80 161 160 172 178 26 42 28 119 4 160 -24 41 -78 75 -127 80 -33 4 -54 -1 -93 -22z"/>
  </g>
</svg>