<svg version="1.0" xmlns="http://www.w3.org/2000/svg" width="800.000000" height="800.000000" viewBox="0 0 800.000000 800.000000" preserveAspectRatio="xMidYMid meet">
  <metadata>
    <rdf:RDF xmlns:rdf="http://www.w3.org/1999/02/22-rdf-syntax-ns#" xmlns:rdfs="http://www.w3.org/2000/01/rdf-schema#" xmlns:dc="http://purl.org/dc/elements/1.1/">
      <rdf:Description dc:format="image/svg+xml" dc:Label="1" dc:ContentProducer="001191330110MACRLGPT8B00000" dc:ProduceID="370374126" dc:ReservedCode1="8Uqv3cb4YeQT+ei7bTQgGvtkVKN7dvIJ4YElX8/s9tU=" dc:ContentPropagator="001191330110MACRLGPT8B00000" dc:PropagateID="370374126" dc:ReservedCode2="8Uqv3cb4YeQT+ei7bTQgGvtkVKN7dvIJ4YElX8/s9tU="/>
    </rdf:RDF>
  </metadata>
  <g transform="translate(156.210700,661.230320) scale(0.063090,-0.063090)" fill="#000000" stroke="none">
    <path d="M3635 7455 c-177 -46 -274 -113 -515 -356 -202 -203 -249 -243 -327 -283 -115 -57 -340 -96 -563 -96 -149 0 -333 -22 -411 -49 -126 -43 -259 -128 -352 -225 -205 -213 -304 -582 -236 -881 33 -150 34 -178 9 -248 -49 -134 -77 -178 -184 -277 -278 -261 -370 -390 -459 -646 -75 -214 -75 -425 -2 -606 63 -155 230 -340 444 -493 88 -63 131 -101 152 -134 16 -25 52 -114 79 -198 l50 -152 -6 -223 c-6 -188 -4 -240 10 -328 57 -336 284 -588 606 -670 118 -31 240 -25 417 20 l131 33 69 -18 c93 -25 228 -96 305 -160 45 -37 79 -78 117 -141 143 -236 207 -314 321 -389 163 -109 354 -145 580 -110 250 38 403 128 680 401 195 191 234 223 338 276 79 40 90 43 166 43 44 -1 144 -11 221 -24 250 -42 465 -12 679 96 188 94 350 274 410 455 62 184 67 307 26 590 l-33 226 17 73 c30 126 46 145 224 263 398 265 571 498 589 796 7 120 -18 233 -82 367 -98 207 -215 354 -418 521 -234 193 -315 307 -324 454 -5 66 -2 81 31 162 94 230 98 383 16 580 -130 312 -437 549 -825 638 -79 18 -136 21 -465 27 -478 8 -445 -4 -540 187 -73 146 -114 207 -192 280 -110 104 -242 175 -396 215 -88 22 -277 25 -357 4z m325 -440 c120 -60 185 -137 234 -275 76 -214 219 -336 476 -406 88 -24 119 -26 400 -34 313 -9 384 -18 509 -60 178 -59 310 -167 370 -300 30 -66 28 -165 -5 -255 -56 -150 -74 -226 -74 -305 0 -203 85 -408 248 -597 33 -39 123 -124 199 -189 161 -137 220 -203 285 -315 62 -108 86 -206 69 -283 -25 -112 -104 -195 -336 -349 -253 -168 -357 -296 -428 -522 -51 -162 -53 -299 -12 -560 58 -358 -72 -546 -404 -587 -71 -8 -105 -7 -200 8 -150 24 -349 24 -446 1 -89 -22 -230 -89 -330 -157 -44 -30 -158 -130 -257 -226 -153 -149 -188 -178 -257 -213 -105 -52 -209 -75 -314 -69 -138 8 -166 30 -308 239 -167 246 -314 356 -618 463 -221 77 -335 85 -516 36 -60 -16 -126 -30 -146 -30 -69 0 -131 26 -185 80 -106 105 -144 224 -145 446 0 78 3 153 6 167 10 37 -11 196 -33 258 -51 142 -145 381 -174 439 -39 80 -118 165 -223 238 -231 161 -305 251 -321 384 -8 72 10 157 53 246 45 92 93 158 249 338 231 266 309 386 370 569 39 116 39 251 -1 395 -34 128 -38 252 -11 344 77 260 273 391 534 357 254 -32 560 8 749 98 139 67 199 116 458 371 217 214 257 250 305 269 74 29 155 24 230 -14z"/>
    <path d="M3595 5400 c-258 -30 -458 -126 -665 -318 -311 -289 -466 -785 -390 -1247 37 -227 97 -402 178 -522 108 -159 368 -345 582 -417 151 -50 213 -60 365 -61 181 0 253 14 483 91 237 79 404 168 552 292 273 231 452 602 453 942 1 142 -21 226 -100 389 -153 314 -347 514 -642 661 -157 78 -354 149 -501 180 -75 15 -230 20 -315 10z m197 -341 c29 -11 98 -48 153 -81 55 -34 151 -86 214 -115 286 -134 406 -252 506 -497 60 -146 58 -280 -5 -445 -106 -274 -312 -468 -627 -591 -167 -66 -303 -87 -453 -71 -161 17 -291 72 -423 178 -118 95 -178 194 -222 369 -62 241 -33 463 95 731 116 244 253 394 439 480 132 62 238 76 323 42z"/>
  </g>
</svg>